<?xml version="1.0" encoding="iso-8859-1"?>
<!-- Generator: Adobe Illustrator 19.0.0, SVG Export Plug-In . SVG Version: 6.00 Build 0)  -->
<svg version="1.1" id="Layer_1" xmlns="http://www.w3.org/2000/svg" xmlns:xlink="http://www.w3.org/1999/xlink" x="0px" y="0px"
	 viewBox="0 0 512.001 512.001" style="enable-background:new 0 0 512.001 512.001;" xml:space="preserve">
<g>
	<path style="fill:#4482C3;" d="M434.343,300.139c17.02-31.188,26.103-67.319,24.514-105.71
		C454.603,91.561,371.659,6.745,268.897,0.398C150.925-6.884,52.965,86.635,52.965,203.036c0,35.178,8.96,68.255,24.7,97.103h-0.018
		l0.035,0.035c8.157,14.945,18.15,28.734,29.661,41.092c22.846,24.523,45.983,48.764,67.566,74.399L256,512.001l81.099-96.335
		c21.583-25.635,44.721-49.876,67.566-74.399c11.511-12.359,21.504-26.147,29.661-41.092l0.026-0.035H434.343z"/>
	<path style="fill:#FFFFFF;" d="M406.072,203.036c0,82.882-67.187,150.069-150.069,150.069s-150.069-67.187-150.069-150.069
		S173.121,52.967,256.003,52.967S406.072,120.153,406.072,203.036"/>
	<path style="fill:#F0C419;" d="M174.973,210.359c2.313-1.748,4.749-3.31,7.362-4.484c0-0.565,0.044-1.139,0.079-1.713
		c-0.026-0.468-0.079-0.945-0.079-1.421c0-13.833,11.997-25.053,26.792-25.053c5.482,0,10.567,1.545,14.813,4.184
		c5.191-7.292,12.676-13.312,21.354-17.39c-5.279-18.467-22.095-32.071-42.258-32.071c-24.373,0-44.138,19.765-44.138,44.138
		C158.898,190.206,165.227,202.264,174.973,210.359"/>
	<path style="fill:#ECF0F1;" d="M322.982,209.006c-0.38-27.242-24.082-50.105-53.301-50.105c-18.617,0-36.087,9.41-45.745,22.969
		c-4.246-2.639-9.331-4.175-14.813-4.175c-14.795,0-26.783,11.211-26.783,25.053c0,0.477,0.044,0.945,0.079,1.421
		c-0.035,0.565-0.079,1.148-0.079,1.713c-13.356,5.985-23.437,20.215-23.437,34.931c0,20.401,13.489,32.847,35.31,32.847h8.828
		h105.931h8.828c20.303,0,35.31-11.299,35.31-30.287C353.11,226.546,340.072,212.016,322.982,209.006"/>
	<g>
		<path style="fill:#BDC3C7;" d="M297.391,217.833c-4.326,0-8.104-3.178-8.73-7.583c-0.68-4.829,2.666-9.304,7.495-9.984
			c8.916-1.262,25.547-0.203,27.427-0.071c4.864,0.335,8.545,4.546,8.21,9.401c-0.335,4.873-4.502,8.678-9.401,8.218
			c-4.555-0.3-17.726-0.927-23.746-0.071C298.221,217.807,297.806,217.833,297.391,217.833"/>
		<path style="fill:#BDC3C7;" d="M235.917,211.57c-4.882,0-8.828-3.955-8.828-8.828c0-8.951-8.06-16.225-17.964-16.225
			s-17.955,7.274-17.955,16.225c0,4.873-3.955,8.828-8.828,8.828c-4.882,0-8.828-3.955-8.828-8.828
			c0-18.688,15.969-33.88,35.61-33.88c19.633,0,35.619,15.192,35.619,33.88C244.744,207.615,240.798,211.57,235.917,211.57"/>
	</g>
</g>
<g>
</g>
<g>
</g>
<g>
</g>
<g>
</g>
<g>
</g>
<g>
</g>
<g>
</g>
<g>
</g>
<g>
</g>
<g>
</g>
<g>
</g>
<g>
</g>
<g>
</g>
<g>
</g>
<g>
</g>
</svg>
